<svg width="189" height="44" viewBox="0 0 189 44" fill="none" xmlns="http://www.w3.org/2000/svg">
<rect x="3" y="6" width="19" height="5" rx="2" fill="#265BE1"/>
<path d="M10.752 34.504C9.044 34.504 7.49 34.168 6.09 33.496C4.718 32.796 3.626 31.732 2.814 30.304C2.002 28.876 1.596 27.056 1.596 24.844C1.596 22.772 2.016 20.98 2.856 19.468C3.696 17.956 4.802 16.794 6.174 15.982C7.546 15.142 9.002 14.722 10.542 14.722C12.362 14.722 13.734 15.03 14.658 15.646C15.61 16.234 16.394 16.892 17.01 17.62L16.758 18.334L17.304 15.646H22.764V34H16.884V30.01L17.346 31.27C17.29 31.27 17.122 31.438 16.842 31.774C16.562 32.082 16.142 32.46 15.582 32.908C15.05 33.328 14.378 33.692 13.566 34C12.782 34.336 11.844 34.504 10.752 34.504ZM12.432 29.716C13.132 29.716 13.762 29.618 14.322 29.422C14.882 29.198 15.372 28.89 15.792 28.498C16.212 28.078 16.576 27.56 16.884 26.944V22.45C16.66 21.834 16.324 21.316 15.876 20.896C15.428 20.448 14.896 20.112 14.28 19.888C13.664 19.636 12.978 19.51 12.222 19.51C11.382 19.51 10.598 19.734 9.87 20.182C9.17 20.602 8.61 21.19 8.19 21.946C7.77 22.702 7.56 23.57 7.56 24.55C7.56 25.53 7.784 26.412 8.232 27.196C8.68 27.98 9.268 28.596 9.996 29.044C10.752 29.492 11.564 29.716 12.432 29.716ZM34.2828 14.092L34.1148 15.646L35.0388 14.47L45.1188 3.088H53.0148L40.2468 16.948L53.0568 34H45.3288L35.7948 20.812L34.2828 22.324V34H28.1088V3.088H34.2828V14.092ZM52.9919 24.592C52.9919 22.716 53.4259 21.036 54.2939 19.552C55.1899 18.068 56.4359 16.906 58.0319 16.066C59.6279 15.198 61.4619 14.764 63.5339 14.764C65.6339 14.764 67.4539 15.198 68.9939 16.066C70.5339 16.906 71.7099 18.068 72.5219 19.552C73.3619 21.036 73.7819 22.716 73.7819 24.592C73.7819 26.468 73.3619 28.162 72.5219 29.674C71.7099 31.158 70.5339 32.334 68.9939 33.202C67.4539 34.07 65.6059 34.504 63.4499 34.504C61.4339 34.504 59.6279 34.112 58.0319 33.328C56.4639 32.544 55.2319 31.41 54.3359 29.926C53.4399 28.442 52.9919 26.664 52.9919 24.592ZM58.9139 24.634C58.9139 25.586 59.1099 26.454 59.5019 27.238C59.8939 27.994 60.4259 28.596 61.0979 29.044C61.7699 29.492 62.5259 29.716 63.3659 29.716C64.2899 29.716 65.0879 29.492 65.7599 29.044C66.4319 28.596 66.9499 27.994 67.3139 27.238C67.6779 26.454 67.8599 25.586 67.8599 24.634C67.8599 23.654 67.6779 22.786 67.3139 22.03C66.9499 21.274 66.4319 20.672 65.7599 20.224C65.0879 19.776 64.2899 19.552 63.3659 19.552C62.5259 19.552 61.7699 19.776 61.0979 20.224C60.4259 20.672 59.8939 21.274 59.5019 22.03C59.1099 22.786 58.9139 23.654 58.9139 24.634ZM82.068 15.646L82.53 18.88L82.446 18.628C83.174 17.396 84.084 16.444 85.176 15.772C86.268 15.072 87.584 14.722 89.124 14.722C90.132 14.722 91.014 14.862 91.77 15.142C92.554 15.422 93.212 15.842 93.744 16.402C94.276 16.934 94.64 17.634 94.836 18.502L94.626 18.544C95.41 17.396 96.348 16.472 97.44 15.772C98.56 15.072 99.722 14.722 100.926 14.722C102.746 14.722 104.188 15.24 105.252 16.276C106.344 17.284 106.904 18.6 106.932 20.224V34H101.094V22.66C101.066 21.848 100.94 21.19 100.716 20.686C100.492 20.154 99.974 19.86 99.162 19.804C98.21 19.804 97.398 20.14 96.726 20.812C96.082 21.456 95.592 22.296 95.256 23.332C94.948 24.34 94.794 25.39 94.794 26.482V34H88.914V22.66C88.886 21.848 88.732 21.19 88.452 20.686C88.2 20.154 87.668 19.86 86.856 19.804C85.932 19.804 85.148 20.14 84.504 20.812C83.888 21.456 83.412 22.282 83.076 23.29C82.768 24.298 82.614 25.334 82.614 26.398V34H76.734V15.646H82.068ZM113.076 34V20.77H109.968V15.562H113.076V9.178C113.076 6.77 113.762 4.81 115.134 3.298C116.534 1.758 118.55 0.987999 121.182 0.987999C121.966 0.987999 122.834 1.114 123.786 1.366C124.766 1.59 125.62 1.968 126.348 2.5L123.87 6.742C123.59 6.378 123.254 6.14 122.862 6.028C122.498 5.888 122.148 5.818 121.812 5.818C120.972 5.818 120.286 6.098 119.754 6.658C119.222 7.218 118.956 8.114 118.956 9.346V15.562H124.5V20.77H118.956V34H113.076Z" fill="black"/>
<rect x="130.5" y="2.5" width="22" height="32" rx="2.5" fill="#265BE1" stroke="#265BE1"/>
<rect x="135" y="19" width="8" height="12" rx="3" fill="white"/>
<path d="M164.316 15.646L164.862 20.686L164.736 19.93C165.268 18.838 165.996 17.914 166.92 17.158C167.844 16.374 168.754 15.772 169.65 15.352C170.574 14.932 171.274 14.722 171.75 14.722L171.456 20.602C170.084 20.434 168.908 20.658 167.928 21.274C166.948 21.89 166.192 22.702 165.66 23.71C165.128 24.718 164.862 25.754 164.862 26.818V34H159.024V15.646H164.316ZM176.503 7.582H182.383V15.562H186.835V20.14H182.383V34H176.503V20.14H173.647V15.562H176.503V7.582Z" fill="black"/>
</svg>
